<?xml version="1.0" encoding="UTF-8" standalone="no"?>
<!-- Created with Inkscape (http://www.inkscape.org/) -->

<svg
   xmlns:dc="http://purl.org/dc/elements/1.1/"
   xmlns:cc="http://creativecommons.org/ns#"
   xmlns:rdf="http://www.w3.org/1999/02/22-rdf-syntax-ns#"
   xmlns:svg="http://www.w3.org/2000/svg"
   xmlns="http://www.w3.org/2000/svg"
   xmlns:sodipodi="http://sodipodi.sourceforge.net/DTD/sodipodi-0.dtd"
   xmlns:inkscape="http://www.inkscape.org/namespaces/inkscape"
   width="354.33072"
   height="354.33072"
   viewBox="0 0 354.33071 354.33071"
   id="svg2"
   version="1.1"
   inkscape:version="0.91 r13725"
   sodipodi:docname="tw.svg"
   inkscape:export-filename="Z:\Ramanujan\view2pData\icons\tw.png"
   inkscape:export-xdpi="200"
   inkscape:export-ydpi="200">
  <defs
     id="defs4">
    <marker
       inkscape:stockid="Arrow1Mend"
       orient="auto"
       refY="0"
       refX="0"
       id="Arrow1Mend"
       style="overflow:visible"
       inkscape:isstock="true">
      <path
         id="path4156"
         d="M 0,0 5,-5 -12.5,0 5,5 0,0 Z"
         style="fill:#f600e5;fill-opacity:1;fill-rule:evenodd;stroke:#f600e5;stroke-width:1pt;stroke-opacity:1"
         transform="matrix(-0.4,0,0,-0.4,-4,0)"
         inkscape:connector-curvature="0" />
    </marker>
    <marker
       inkscape:stockid="Arrow1Mstart"
       orient="auto"
       refY="0"
       refX="0"
       id="Arrow1Mstart"
       style="overflow:visible"
       inkscape:isstock="true">
      <path
         id="path4153"
         d="M 0,0 5,-5 -12.5,0 5,5 0,0 Z"
         style="fill:#f600e5;fill-opacity:1;fill-rule:evenodd;stroke:#f600e5;stroke-width:1pt;stroke-opacity:1"
         transform="matrix(0.4,0,0,0.4,4,0)"
         inkscape:connector-curvature="0" />
    </marker>
    <marker
       inkscape:stockid="Arrow1Lend"
       orient="auto"
       refY="0"
       refX="0"
       id="Arrow1Lend"
       style="overflow:visible"
       inkscape:isstock="true">
      <path
         id="path4150"
         d="M 0,0 5,-5 -12.5,0 5,5 0,0 Z"
         style="fill:#000000;fill-opacity:1;fill-rule:evenodd;stroke:#000000;stroke-width:1pt;stroke-opacity:1"
         transform="matrix(-0.8,0,0,-0.8,-10,0)"
         inkscape:connector-curvature="0" />
    </marker>
    <marker
       inkscape:stockid="Arrow1Lstart"
       orient="auto"
       refY="0"
       refX="0"
       id="Arrow1Lstart"
       style="overflow:visible"
       inkscape:isstock="true">
      <path
         id="path4147"
         d="M 0,0 5,-5 -12.5,0 5,5 0,0 Z"
         style="fill:#000000;fill-opacity:1;fill-rule:evenodd;stroke:#000000;stroke-width:1pt;stroke-opacity:1"
         transform="matrix(0.8,0,0,0.8,10,0)"
         inkscape:connector-curvature="0" />
    </marker>
  </defs>
  <sodipodi:namedview
     id="base"
     pagecolor="#f0f0f0"
     bordercolor="#000000"
     borderopacity="1"
     inkscape:pageopacity="1"
     inkscape:pageshadow="2"
     inkscape:zoom="0.8132121"
     inkscape:cx="439.05909"
     inkscape:cy="-38.432825"
     inkscape:document-units="px"
     inkscape:current-layer="layer1"
     showgrid="false"
     borderlayer="true"
     inkscape:showpageshadow="false"
     inkscape:window-width="1680"
     inkscape:window-height="997"
     inkscape:window-x="-8"
     inkscape:window-y="-8"
     inkscape:window-maximized="1"
     units="px" />
  <metadata
     id="metadata7">
    <rdf:RDF>
      <cc:Work
         rdf:about="">
        <dc:format>image/svg+xml</dc:format>
        <dc:type
           rdf:resource="http://purl.org/dc/dcmitype/StillImage" />
        <dc:title></dc:title>
      </cc:Work>
    </rdf:RDF>
  </metadata>
  <g
     inkscape:label="Layer 1"
     inkscape:groupmode="layer"
     id="layer1"
     transform="translate(0,-698.03151)">
    <g
       id="g4669"
       transform="translate(5.6924141,-21.048244)">
      <path
         inkscape:connector-curvature="0"
         id="path4135"
         d="m 77.045496,810.06671 c 0,220.85889 0,221.72839 0,221.72839 M 37.916952,971.79802 c 292.159798,0 291.290278,0 291.290278,0"
         style="fill:none;fill-rule:evenodd;stroke:#000000;stroke-width:5;stroke-linecap:butt;stroke-linejoin:miter;stroke-miterlimit:4;stroke-dasharray:none;stroke-opacity:1" />
      <path
         sodipodi:nodetypes="cssssscssssssssssssssc"
         inkscape:connector-curvature="0"
         id="path4137"
         d="m 10.09221,956.14661 c 5.217139,6.08666 6.086662,13.04284 13.042847,7.82571 6.956186,-5.21714 0.869524,-9.56476 6.956186,-5.21714 6.086663,4.34761 6.086663,8.69523 11.303802,2.60857 5.217139,-6.08667 1.474092,-7.16575 9.129993,-3.04334 l 5.651901,3.04334 c 6.313216,3.39943 11.303802,-3.04333 11.303802,-3.04333 0,0 8.695232,3.91285 13.042848,3.91285 4.347616,0 21.738081,-6.95619 23.477131,-3.47809 1.73904,3.47809 5.21714,5.21713 4.34761,4.34761 -0.42693,-0.42693 -1.1393,-31.35543 6.92973,-61.55518 3.82961,-14.33298 5.06885,-26.54332 5.58431,-38.56072 0.62638,-14.60334 10.22101,-27.05951 16.18023,-25.96496 21.30332,3.91286 22.60761,1.73904 36.51998,0 13.91237,-1.73905 2.60857,-0.86953 14.78189,4.34761 12.17333,5.21714 33.04188,6.08667 36.51998,2.60857 3.47809,-3.47809 2.60857,9.56476 13.04284,12.17333 10.43428,2.60857 6.08667,51.30187 15.65142,54.77996 9.56476,3.47809 5.21714,33.04188 21.73808,39.12854 16.52094,6.08667 19.99904,5.21714 26.0857,0.86953 6.08666,-4.34762 2.60857,0 10.43428,4.34761 7.82571,4.34762 14.78189,0.86953 20.86855,0"
         style="fill:none;fill-rule:evenodd;stroke:#0000ff;stroke-width:5;stroke-linecap:butt;stroke-linejoin:miter;stroke-miterlimit:4;stroke-dasharray:none;stroke-opacity:1" />
      <rect
         y="821.49054"
         x="96.059494"
         height="173.5486"
         width="162.21172"
         id="rect4139"
         style="color:#000000;clip-rule:nonzero;display:inline;overflow:visible;visibility:visible;opacity:1;isolation:auto;mix-blend-mode:normal;color-interpolation:sRGB;color-interpolation-filters:linearRGB;solid-color:#000000;solid-opacity:1;fill:#ff00ff;fill-opacity:0.2;fill-rule:evenodd;stroke:#ff00ff;stroke-width:4.51960993;stroke-linecap:square;stroke-linejoin:miter;stroke-miterlimit:4;stroke-dasharray:none;stroke-dashoffset:0;stroke-opacity:1;color-rendering:auto;image-rendering:auto;shape-rendering:auto;text-rendering:auto;enable-background:accumulate" />
      <path
         inkscape:connector-curvature="0"
         id="path4141"
         d="m 73.256421,773.22223 c 207.817869,0 207.817869,0 207.817869,0"
         style="fill:none;fill-rule:evenodd;stroke:#f600e5;stroke-width:5;stroke-linecap:butt;stroke-linejoin:miter;stroke-miterlimit:4;stroke-dasharray:none;stroke-opacity:1;marker-start:url(#Arrow1Mstart);marker-end:url(#Arrow1Mend)" />
    </g>
    <rect
       style="color:#000000;clip-rule:nonzero;display:inline;overflow:visible;visibility:visible;opacity:1;isolation:auto;mix-blend-mode:normal;color-interpolation:sRGB;color-interpolation-filters:linearRGB;solid-color:#000000;solid-opacity:1;fill:none;fill-opacity:1;fill-rule:evenodd;stroke:#000000;stroke-width:8.29033756;stroke-linecap:square;stroke-linejoin:miter;stroke-miterlimit:4;stroke-dasharray:none;stroke-dashoffset:0;stroke-opacity:1;color-rendering:auto;image-rendering:auto;shape-rendering:auto;text-rendering:auto;enable-background:accumulate"
       id="rect4170"
       width="346.04037"
       height="346.04037"
       x="4.1451721"
       y="702.1767" />
  </g>
</svg>
